{
  "accessors": [
    {
      "bufferView": 2,
      "componentType": 5126,
      "count": 11684,
      "max": [
        40.06243896484375,
        40.06243896484375,
        40.06243896484375
      ],
      "min": [
        -40.06243896484375,
        -40.06243896484375,
        -40.06243896484375
      ],
      "type": "VEC3"
    },
    {
      "bufferView": 2,
      "byteOffset": 140208,
      "componentType": 5126,
      "count": 11684,
      "max": [
        0.9996204972267151,
        0.9996204972267151,
        0.9996204972267151
      ],
      "min": [
        -0.9996204972267151,
        -0.9996204972267151,
        -0.9996204972267151
      ],
      "type": "VEC3"
    },
    {
      "bufferView": 3,
      "componentType": 5126,
      "count": 11684,
      "max": [
        1.0,
        1.0,
        1.0,
        1.0
      ],
      "min": [
        -1.0,
        -1.0,
        -1.0,
        -1.0
      ],
      "type": "VEC4"
    },
    {
      "bufferView": 1,
      "componentType": 5126,
      "count": 11684,
      "max": [
        1.0020716190338135,
        0.9570393562316895
      ],
      "min": [
        0.11414877325296402,
        0.0185011625289917
      ],
      "type": "VEC2"
    },
    {
      "bufferView": 1,
      "byteOffset": 93472,
      "componentType": 5126,
      "count": 11684,
      "max": [
        1.0020716190338135,
        0.9570393562316895
      ],
      "min": [
        0.11414877325296402,
        0.0185011625289917
      ],
      "type": "VEC2"
    },
    {
      "bufferView": 0,
      "componentType": 5125,
      "count": 64512,
      "type": "SCALAR"
    }
  ],
  "asset": {
    "extras": {
      "author": "Variedades_Juan YT (https://sketchfab.com/Variedades_JuanYT)",
      "license": "CC-BY-4.0 (http://creativecommons.org/licenses/by/4.0/)",
      "source": "https://sketchfab.com/3d-models/adidas-al-rihla-fwc-2022-7737c20ea449471183627302224e434b",
      "title": "Adidas Al Rihla FWC 2022"
    },
    "generator": "Sketchfab-16.16.0",
    "version": "2.0"
  },
  "bufferViews": [
    {
      "buffer": 0,
      "byteLength": 258048,
      "name": "floatBufferViews",
      "target": 34963
    },
    {
      "buffer": 0,
      "byteLength": 186944,
      "byteOffset": 258048,
      "byteStride": 8,
      "name": "floatBufferViews",
      "target": 34962
    },
    {
      "buffer": 0,
      "byteLength": 280416,
      "byteOffset": 444992,
      "byteStride": 12,
      "name": "floatBufferViews",
      "target": 34962
    },
    {
      "buffer": 0,
      "byteLength": 186944,
      "byteOffset": 725408,
      "byteStride": 16,
      "name": "floatBufferViews",
      "target": 34962
    }
  ],
  "buffers": [
    {
      "byteLength": 912352,
      "uri": "scene.bin"
    }
  ],
  "extensionsUsed": [
    "KHR_materials_specular"
  ],
  "images": [
    {
      "uri": "textures/Material_37_baseColor.jpeg"
    },
    {
      "uri": "textures/Material_37_normal.png"
    }
  ],
  "materials": [
    {
      "doubleSided": true,
      "extensions": {
        "KHR_materials_specular": {
          "specularColorFactor": [
            1.0,
            1.0,
            1.0
          ],
          "specularFactor": 1.0
        }
      },
      "name": "Material_37",
      "normalTexture": {
        "index": 1,
        "scale": 0.3
      },
      "pbrMetallicRoughness": {
        "baseColorTexture": {
          "index": 0
        },
        "metallicFactor": 0.0,
        "roughnessFactor": 0.2
      }
    }
  ],
  "meshes": [
    {
      "name": "Object_0",
      "primitives": [
        {
          "attributes": {
            "NORMAL": 1,
            "POSITION": 0,
            "TANGENT": 2,
            "TEXCOORD_0": 3,
            "TEXCOORD_1": 4
          },
          "indices": 5,
          "material": 0,
          "mode": 4
        }
      ]
    }
  ],
  "nodes": [
    {
      "children": [
        1
      ],
      "matrix": [
        1.0,
        0.0,
        0.0,
        0.0,
        0.0,
        2.220446049250313e-16,
        -1.0,
        0.0,
        0.0,
        1.0,
        2.220446049250313e-16,
        0.0,
        0.0,
        0.0,
        0.0,
        1.0
      ],
      "name": "Sketchfab_model"
    },
    {
      "children": [
        2
      ],
      "name": "root"
    },
    {
      "children": [
        3
      ],
      "matrix": [
        1.0,
        0.0,
        0.0,
        0.0,
        0.0,
        2.220446049250313e-16,
        1.0,
        0.0,
        0.0,
        -1.0,
        2.220446049250313e-16,
        0.0,
        0.0,
        0.0,
        0.0,
        1.0
      ],
      "name": "GLTF_SceneRootNode"
    },
    {
      "children": [
        4
      ],
      "matrix": [
        1.0,
        0.0,
        0.0,
        0.0,
        0.0,
        0.3503476083278656,
        -0.936619758605957,
        0.0,
        0.0,
        0.936619758605957,
        0.3503476083278656,
        0.0,
        0.0,
        0.0,
        0.0,
        1.0
      ],
      "name": "Sketchfab_model_0"
    },
    {
      "children": [
        5
      ],
      "matrix": [
        0.02539999969303608,
        0.0,
        0.0,
        0.0,
        0.0,
        0.0,
        0.02539999969303608,
        0.0,
        0.0,
        -0.02539999969303608,
        0.0,
        0.0,
        0.0,
        0.0,
        0.0,
        1.0
      ],
      "name": "eedff6a71c5f4dc6b215121f3a56f68d.fbx_1"
    },
    {
      "children": [
        6
      ],
      "name": "RootNode_2"
    },
    {
      "children": [
        7
      ],
      "matrix": [
        4.371138828673793e-08,
        1.0,
        6.123233601181349e-17,
        0.0,
        -1.0,
        4.371138828673793e-08,
        4.371138828673793e-08,
        0.0,
        4.371138828673793e-08,
        -1.971917900438192e-15,
        1.0,
        0.0,
        0.0,
        0.0,
        0.0,
        1.0
      ],
      "name": "Ball_F_3"
    },
    {
      "children": [
        8
      ],
      "name": "Ball_F_Material #37_0_4"
    },
    {
      "mesh": 0,
      "name": "Object_8"
    }
  ],
  "samplers": [
    {
      "magFilter": 9729,
      "minFilter": 9987,
      "wrapS": 10497,
      "wrapT": 10497
    }
  ],
  "scene": 0,
  "scenes": [
    {
      "name": "Sketchfab_Scene",
      "nodes": [
        0
      ]
    }
  ],
  "textures": [
    {
      "sampler": 0,
      "source": 0
    },
    {
      "sampler": 0,
      "source": 1
    }
  ]
}
