{
  "accessors": [
    {
      "bufferView": 2,
      "componentType": 5126,
      "count": 18752,
      "max": [
        45.135223388671875,
        29.365692138671875,
        113.9798583984375
      ],
      "min": [
        -54.27227783203125,
        -70.04180908203125,
        14.572357177734375
      ],
      "type": "VEC3"
    },
    {
      "bufferView": 2,
      "byteOffset": 225024,
      "componentType": 5126,
      "count": 18752,
      "max": [
        0.999971330165863,
        0.9999713897705078,
        0.999971330165863
      ],
      "min": [
        -0.999971330165863,
        -0.9999713897705078,
        -0.9999714493751526
      ],
      "type": "VEC3"
    },
    {
      "bufferView": 1,
      "componentType": 5126,
      "count": 18752,
      "max": [
        0.9893364310264587,
        1.0055639743804932
      ],
      "min": [
        0.010718987323343754,
        0.00950695388019085
      ],
      "type": "VEC2"
    },
    {
      "bufferView": 0,
      "componentType": 5125,
      "count": 103680,
      "type": "SCALAR"
    }
  ],
  "asset": {
    "extras": {
      "author": "fra978 (https://sketchfab.com/fra978)",
      "license": "CC-BY-4.0 (http://creativecommons.org/licenses/by/4.0/)",
      "source": "https://sketchfab.com/3d-models/soccerball-adidas-tango-1982-c030c7acef5b45f2b204a37f91479562",
      "title": "Soccerball - Adidas Tango 1982"
    },
    "generator": "Sketchfab-12.68.0",
    "version": "2.0"
  },
  "bufferViews": [
    {
      "buffer": 0,
      "byteLength": 414720,
      "name": "floatBufferViews",
      "target": 34963
    },
    {
      "buffer": 0,
      "byteLength": 150016,
      "byteOffset": 414720,
      "byteStride": 8,
      "name": "floatBufferViews",
      "target": 34962
    },
    {
      "buffer": 0,
      "byteLength": 450048,
      "byteOffset": 564736,
      "byteStride": 12,
      "name": "floatBufferViews",
      "target": 34962
    }
  ],
  "buffers": [
    {
      "byteLength": 1014784,
      "uri": "scene.bin"
    }
  ],
  "images": [
    {
      "uri": "textures/Adidas_Tango_198_baseColor.jpeg"
    }
  ],
  "materials": [
    {
      "doubleSided": true,
      "name": "Adidas_Tango_198",
      "pbrMetallicRoughness": {
        "baseColorTexture": {
          "index": 0
        },
        "metallicFactor": 0.0,
        "roughnessFactor": 0.6
      }
    }
  ],
  "meshes": [
    {
      "name": "Object_0",
      "primitives": [
        {
          "attributes": {
            "NORMAL": 1,
            "POSITION": 0,
            "TEXCOORD_0": 2
          },
          "indices": 3,
          "material": 0,
          "mode": 4
        }
      ]
    }
  ],
  "nodes": [
    {
      "children": [
        1
      ],
      "matrix": [
        1.0,
        0.0,
        0.0,
        0.0,
        0.0,
        2.220446049250313e-16,
        -1.0,
        0.0,
        0.0,
        1.0,
        2.220446049250313e-16,
        0.0,
        0.0,
        0.0,
        0.0,
        1.0
      ],
      "name": "Sketchfab_model"
    },
    {
      "children": [
        2
      ],
      "matrix": [
        1.0,
        0.0,
        0.0,
        0.0,
        0.0,
        1.0,
        0.0,
        0.0,
        0.0,
        0.0,
        1.0,
        0.0,
        -4.568527698516846,
        -20.338058471679688,
        64.27610778808594,
        1.0
      ],
      "name": "Tango_ball"
    },
    {
      "children": [
        3
      ],
      "matrix": [
        1.0,
        0.0,
        0.0,
        0.0,
        0.0,
        1.0,
        0.0,
        0.0,
        0.0,
        0.0,
        1.0,
        0.0,
        4.568527698516846,
        20.338058471679688,
        -64.27610778808594,
        1.0
      ],
      "name": "3DSMeshMatrix"
    },
    {
      "mesh": 0,
      "name": "Object_3"
    }
  ],
  "samplers": [
    {
      "magFilter": 9729,
      "minFilter": 9987,
      "wrapS": 10497,
      "wrapT": 10497
    }
  ],
  "scene": 0,
  "scenes": [
    {
      "name": "Sketchfab_Scene",
      "nodes": [
        0
      ]
    }
  ],
  "textures": [
    {
      "sampler": 0,
      "source": 0
    }
  ]
}
