{"scene":0,"asset":{"generator":"ImageToStl.com","version":"2.0"},"scenes":[{"name":"Scene","nodes":[0]}],"nodes":[{"name":"Node0","children":[1]},{"name":"Node1","mesh":0}],"materials":[{"name":"x1","pbrMetallicRoughness":{"baseColorFactor":[0.85,0.85,0.85,1.0],"metallicFactor":0.05,"roughnessFactor":0.5},"doubleSided":true}],"meshes":[{"name":"Mesh0","primitives":[{"indices":3,"material":0,"attributes":{"POSITION":0,"NORMAL":1,"TEXCOORD_0":2}}]}],"accessors":[{"bufferView":0,"componentType":5126,"count":740,"type":"VEC3","min":[-32.5,-22.5,0.0],"max":[32.5,22.5,5.0]},{"bufferView":1,"componentType":5126,"count":740,"type":"VEC3"},{"bufferView":2,"componentType":5126,"count":740,"type":"VEC2"},{"bufferView":3,"componentType":5123,"count":9432,"type":"SCALAR"}],"bufferViews":[{"target":34962,"buffer":0,"byteLength":8880,"byteOffset":0},{"target":34962,"buffer":0,"byteLength":8880,"byteOffset":8880},{"target":34962,"buffer":0,"byteLength":5920,"byteOffset":17760},{"target":34963,"buffer":0,"byteLength":18864,"byteOffset":23680}],"buffers":[{"byteLength":42544,"uri":"data:application/octet-stream;base64,"}]}