{
  "accessors": [
    {
      "bufferView": 2,
      "componentType": 5126,
      "count": 65532,
      "max": [
        12.336101531982422,
        12.377434730529785,
        16.657529830932617
      ],
      "min": [
        -26.740013122558594,
        -14.784693717956543,
        -3.016533613204956
      ],
      "type": "VEC3"
    },
    {
      "bufferView": 2,
      "byteOffset": 786384,
      "componentType": 5126,
      "count": 65532,
      "max": [
        0.9999665021896362,
        0.9999985098838806,
        1.0
      ],
      "min": [
        -0.999921977519989,
        -0.999804675579071,
        -0.9999907612800598
      ],
      "type": "VEC3"
    },
    {
      "bufferView": 1,
      "componentType": 5126,
      "count": 65532,
      "max": [
        0.9992679953575134,
        0.9968019723892212
      ],
      "min": [
        1.401298464324817e-45,
        0.0
      ],
      "type": "VEC2"
    },
    {
      "bufferView": 0,
      "componentType": 5125,
      "count": 271875,
      "type": "SCALAR"
    },
    {
      "bufferView": 2,
      "byteOffset": 1572768,
      "componentType": 5126,
      "count": 40133,
      "max": [
        12.327146530151367,
        11.754460334777832,
        16.657529830932617
      ],
      "min": [
        -26.740013122558594,
        -14.743462562561035,
        -3.016533613204956
      ],
      "type": "VEC3"
    },
    {
      "bufferView": 2,
      "byteOffset": 2054364,
      "componentType": 5126,
      "count": 40133,
      "max": [
        0.9999282956123352,
        0.9999985098838806,
        1.0
      ],
      "min": [
        -0.9998382925987244,
        -0.9997822642326355,
        -0.9999907612800598
      ],
      "type": "VEC3"
    },
    {
      "bufferView": 1,
      "byteOffset": 524256,
      "componentType": 5126,
      "count": 40133,
      "max": [
        0.9992679953575134,
        0.9992619752883911
      ],
      "min": [
        1.401298464324817e-45,
        0.0
      ],
      "type": "VEC2"
    },
    {
      "bufferView": 0,
      "byteOffset": 1087500,
      "componentType": 5125,
      "count": 108942,
      "type": "SCALAR"
    }
  ],
  "asset": {
    "extras": {
      "author": "danyelon (https://sketchfab.com/adelin)",
      "license": "CC-BY-4.0 (http://creativecommons.org/licenses/by/4.0/)",
      "source": "https://sketchfab.com/3d-models/clemente-8ce8d6c2f78349019283ba6f93bab3cf",
      "title": "Clemente"
    },
    "generator": "Sketchfab-12.68.0",
    "version": "2.0"
  },
  "bufferViews": [
    {
      "buffer": 0,
      "byteLength": 1523268,
      "name": "floatBufferViews",
      "target": 34963
    },
    {
      "buffer": 0,
      "byteLength": 845320,
      "byteOffset": 1523268,
      "byteStride": 8,
      "name": "floatBufferViews",
      "target": 34962
    },
    {
      "buffer": 0,
      "byteLength": 2535960,
      "byteOffset": 2368588,
      "byteStride": 12,
      "name": "floatBufferViews",
      "target": 34962
    }
  ],
  "buffers": [
    {
      "byteLength": 4904548,
      "uri": "scene.bin"
    }
  ],
  "images": [
    {
      "uri": "textures/Decimated_baseColor.jpeg"
    }
  ],
  "materials": [
    {
      "doubleSided": true,
      "name": "Decimated",
      "pbrMetallicRoughness": {
        "baseColorTexture": {
          "index": 0
        },
        "metallicFactor": 0.0
      }
    }
  ],
  "meshes": [
    {
      "name": "Decimated_Decimated_0",
      "primitives": [
        {
          "attributes": {
            "NORMAL": 1,
            "POSITION": 0,
            "TEXCOORD_0": 2
          },
          "indices": 3,
          "material": 0,
          "mode": 4
        }
      ]
    },
    {
      "name": "Decimated_Decimated_0",
      "primitives": [
        {
          "attributes": {
            "NORMAL": 5,
            "POSITION": 4,
            "TEXCOORD_0": 6
          },
          "indices": 7,
          "material": 0,
          "mode": 4
        }
      ]
    }
  ],
  "nodes": [
    {
      "children": [
        1
      ],
      "matrix": [
        1.0,
        0.0,
        0.0,
        0.0,
        0.0,
        2.220446049250313e-16,
        -1.0,
        0.0,
        0.0,
        1.0,
        2.220446049250313e-16,
        0.0,
        0.0,
        0.0,
        0.0,
        1.0
      ],
      "name": "Sketchfab_model"
    },
    {
      "children": [
        2
      ],
      "matrix": [
        1.0,
        0.0,
        0.0,
        0.0,
        0.0,
        0.0,
        1.0,
        0.0,
        0.0,
        -1.0,
        0.0,
        0.0,
        0.0,
        0.0,
        0.0,
        1.0
      ],
      "name": "Clemente_Decimated1.fbx"
    },
    {
      "children": [
        3
      ],
      "name": "RootNode"
    },
    {
      "children": [
        4,
        5
      ],
      "name": "Decimated"
    },
    {
      "mesh": 0,
      "name": "Decimated_Decimated_0"
    },
    {
      "mesh": 1,
      "name": "Decimated_Decimated_0"
    }
  ],
  "samplers": [
    {
      "magFilter": 9729,
      "minFilter": 9987,
      "wrapS": 10497,
      "wrapT": 10497
    }
  ],
  "scene": 0,
  "scenes": [
    {
      "name": "Sketchfab_Scene",
      "nodes": [
        0
      ]
    }
  ],
  "textures": [
    {
      "sampler": 0,
      "source": 0
    }
  ]
}
