{
  "accessors": [
    {
      "bufferView": 2,
      "componentType": 5126,
      "count": 144,
      "max": [
        1.0,
        1.0,
        1.0
      ],
      "min": [
        -1.0,
        -1.0,
        -1.0
      ],
      "type": "VEC3"
    },
    {
      "bufferView": 2,
      "byteOffset": 1728,
      "componentType": 5126,
      "count": 144,
      "max": [
        1.0,
        1.0,
        1.0
      ],
      "min": [
        -1.0,
        -1.0,
        -1.0
      ],
      "type": "VEC3"
    },
    {
      "bufferView": 1,
      "componentType": 5126,
      "count": 144,
      "max": [
        0.875,
        1.0
      ],
      "min": [
        0.125,
        0.0
      ],
      "type": "VEC2"
    },
    {
      "bufferView": 0,
      "componentType": 5125,
      "count": 276,
      "type": "SCALAR"
    },
    {
      "bufferView": 2,
      "byteOffset": 3456,
      "componentType": 5126,
      "count": 192,
      "max": [
        1.0,
        1.0,
        83.05517578125
      ],
      "min": [
        -1.0,
        -1.0,
        -1.0
      ],
      "type": "VEC3"
    },
    {
      "bufferView": 2,
      "byteOffset": 5760,
      "componentType": 5126,
      "count": 192,
      "max": [
        0.9951847791671753,
        0.9951847791671753,
        1.0
      ],
      "min": [
        -0.9951847791671753,
        -0.9951847791671753,
        -1.0
      ],
      "type": "VEC3"
    },
    {
      "bufferView": 1,
      "byteOffset": 1152,
      "componentType": 5126,
      "count": 192,
      "max": [
        1.0,
        1.0
      ],
      "min": [
        0.0,
        0.01000000536441803
      ],
      "type": "VEC2"
    },
    {
      "bufferView": 0,
      "byteOffset": 1104,
      "componentType": 5125,
      "count": 372,
      "type": "SCALAR"
    },
    {
      "bufferView": 2,
      "byteOffset": 8064,
      "componentType": 5126,
      "count": 192,
      "max": [
        1.0,
        1.0,
        83.05517578125
      ],
      "min": [
        -1.0,
        -1.0,
        -1.0
      ],
      "type": "VEC3"
    },
    {
      "bufferView": 2,
      "byteOffset": 10368,
      "componentType": 5126,
      "count": 192,
      "max": [
        0.9951847791671753,
        0.9951847791671753,
        1.0
      ],
      "min": [
        -0.9951847791671753,
        -0.9951847791671753,
        -1.0
      ],
      "type": "VEC3"
    },
    {
      "bufferView": 1,
      "byteOffset": 2688,
      "componentType": 5126,
      "count": 192,
      "max": [
        1.0,
        1.0
      ],
      "min": [
        0.0,
        0.01000000536441803
      ],
      "type": "VEC2"
    },
    {
      "bufferView": 0,
      "byteOffset": 2592,
      "componentType": 5125,
      "count": 372,
      "type": "SCALAR"
    },
    {
      "bufferView": 2,
      "byteOffset": 12672,
      "componentType": 5126,
      "count": 164,
      "max": [
        1.0,
        1.0,
        1.0
      ],
      "min": [
        -1.0,
        -1.0,
        -2.6860315799713135
      ],
      "type": "VEC3"
    },
    {
      "bufferView": 2,
      "byteOffset": 14640,
      "componentType": 5126,
      "count": 164,
      "max": [
        1.0,
        1.0,
        0.6856964826583862
      ],
      "min": [
        -1.0,
        -1.0,
        -0.7298487424850464
      ],
      "type": "VEC3"
    },
    {
      "bufferView": 1,
      "byteOffset": 4224,
      "componentType": 5126,
      "count": 164,
      "max": [
        1.0,
        1.0
      ],
      "min": [
        0.0,
        0.01000000536441803
      ],
      "type": "VEC2"
    },
    {
      "bufferView": 0,
      "byteOffset": 4080,
      "componentType": 5125,
      "count": 666,
      "type": "SCALAR"
    },
    {
      "bufferView": 2,
      "byteOffset": 16608,
      "componentType": 5126,
      "count": 32,
      "max": [
        0.9543061256408691,
        0.9543061256408691,
        -2.6201577186584473
      ],
      "min": [
        -0.9543061256408691,
        -0.9543061256408691,
        -2.6201577186584473
      ],
      "type": "VEC3"
    },
    {
      "bufferView": 2,
      "byteOffset": 16992,
      "componentType": 5126,
      "count": 32,
      "max": [
        -3.145142102312093e-08,
        0.0,
        1.0
      ],
      "min": [
        -3.145142102312093e-08,
        0.0,
        1.0
      ],
      "type": "VEC3"
    },
    {
      "bufferView": 1,
      "byteOffset": 5536,
      "componentType": 5126,
      "count": 32,
      "max": [
        0.0,
        0.0
      ],
      "min": [
        0.0,
        0.0
      ],
      "type": "VEC2"
    },
    {
      "bufferView": 0,
      "byteOffset": 6744,
      "componentType": 5125,
      "count": 90,
      "type": "SCALAR"
    },
    {
      "bufferView": 2,
      "byteOffset": 17376,
      "componentType": 5126,
      "count": 164,
      "max": [
        1.0,
        1.0,
        1.0
      ],
      "min": [
        -1.0,
        -1.0,
        -2.6860315799713135
      ],
      "type": "VEC3"
    },
    {
      "bufferView": 2,
      "byteOffset": 19344,
      "componentType": 5126,
      "count": 164,
      "max": [
        1.0,
        1.0,
        0.6856964826583862
      ],
      "min": [
        -1.0,
        -1.0,
        -0.7298487424850464
      ],
      "type": "VEC3"
    },
    {
      "bufferView": 1,
      "byteOffset": 5792,
      "componentType": 5126,
      "count": 164,
      "max": [
        1.0,
        1.0
      ],
      "min": [
        0.0,
        0.01000000536441803
      ],
      "type": "VEC2"
    },
    {
      "bufferView": 0,
      "byteOffset": 7104,
      "componentType": 5125,
      "count": 666,
      "type": "SCALAR"
    },
    {
      "bufferView": 2,
      "byteOffset": 21312,
      "componentType": 5126,
      "count": 32,
      "max": [
        0.9543061256408691,
        0.9543061256408691,
        -2.6201577186584473
      ],
      "min": [
        -0.9543061256408691,
        -0.9543061256408691,
        -2.6201577186584473
      ],
      "type": "VEC3"
    },
    {
      "bufferView": 2,
      "byteOffset": 21696,
      "componentType": 5126,
      "count": 32,
      "max": [
        -3.145142102312093e-08,
        0.0,
        1.0
      ],
      "min": [
        -3.145142102312093e-08,
        0.0,
        1.0
      ],
      "type": "VEC3"
    },
    {
      "bufferView": 1,
      "byteOffset": 7104,
      "componentType": 5126,
      "count": 32,
      "max": [
        0.0,
        0.0
      ],
      "min": [
        0.0,
        0.0
      ],
      "type": "VEC2"
    },
    {
      "bufferView": 0,
      "byteOffset": 9768,
      "componentType": 5125,
      "count": 90,
      "type": "SCALAR"
    },
    {
      "bufferView": 2,
      "byteOffset": 22080,
      "componentType": 5126,
      "count": 164,
      "max": [
        1.0,
        1.0,
        1.0
      ],
      "min": [
        -1.0,
        -1.0,
        -2.6860315799713135
      ],
      "type": "VEC3"
    },
    {
      "bufferView": 2,
      "byteOffset": 24048,
      "componentType": 5126,
      "count": 164,
      "max": [
        1.0,
        1.0,
        0.6856964826583862
      ],
      "min": [
        -1.0,
        -1.0,
        -0.7298487424850464
      ],
      "type": "VEC3"
    },
    {
      "bufferView": 1,
      "byteOffset": 7360,
      "componentType": 5126,
      "count": 164,
      "max": [
        1.0,
        1.0
      ],
      "min": [
        0.0,
        0.01000000536441803
      ],
      "type": "VEC2"
    },
    {
      "bufferView": 0,
      "byteOffset": 10128,
      "componentType": 5125,
      "count": 666,
      "type": "SCALAR"
    },
    {
      "bufferView": 2,
      "byteOffset": 26016,
      "componentType": 5126,
      "count": 32,
      "max": [
        0.9543061256408691,
        0.9543061256408691,
        -2.6201577186584473
      ],
      "min": [
        -0.9543061256408691,
        -0.9543061256408691,
        -2.6201577186584473
      ],
      "type": "VEC3"
    },
    {
      "bufferView": 2,
      "byteOffset": 26400,
      "componentType": 5126,
      "count": 32,
      "max": [
        -3.145142102312093e-08,
        0.0,
        1.0
      ],
      "min": [
        -3.145142102312093e-08,
        0.0,
        1.0
      ],
      "type": "VEC3"
    },
    {
      "bufferView": 1,
      "byteOffset": 8672,
      "componentType": 5126,
      "count": 32,
      "max": [
        0.0,
        0.0
      ],
      "min": [
        0.0,
        0.0
      ],
      "type": "VEC2"
    },
    {
      "bufferView": 0,
      "byteOffset": 12792,
      "componentType": 5125,
      "count": 90,
      "type": "SCALAR"
    }
  ],
  "asset": {
    "extras": {
      "author": "franciscomedina77 (https://sketchfab.com/franciscomedina77)",
      "license": "CC-BY-4.0 (http://creativecommons.org/licenses/by/4.0/)",
      "source": "https://sketchfab.com/3d-models/lampara-colgante-de-techo-5734c763753a412f9a689d1615871639",
      "title": "Lámpara colgante de Techo"
    },
    "generator": "Sketchfab-16.68.0",
    "version": "2.0"
  },
  "bufferViews": [
    {
      "buffer": 0,
      "byteLength": 13152,
      "name": "floatBufferViews",
      "target": 34963
    },
    {
      "buffer": 0,
      "byteLength": 8928,
      "byteOffset": 13152,
      "byteStride": 8,
      "name": "floatBufferViews",
      "target": 34962
    },
    {
      "buffer": 0,
      "byteLength": 26784,
      "byteOffset": 22080,
      "byteStride": 12,
      "name": "floatBufferViews",
      "target": 34962
    }
  ],
  "buffers": [
    {
      "byteLength": 48864,
      "uri": "scene.bin"
    }
  ],
  "extensionsUsed": [
    "KHR_materials_emissive_strength"
  ],
  "materials": [
    {
      "doubleSided": true,
      "name": "Material.001",
      "pbrMetallicRoughness": {
        "baseColorFactor": [
          0.21404114048223255,
          0.08834126027775638,
          0.008329261933796989,
          1.0
        ],
        "metallicFactor": 0.7055259596981628,
        "roughnessFactor": 0.05066377345150008
      }
    },
    {
      "doubleSided": true,
      "name": "Material.003",
      "pbrMetallicRoughness": {
        "baseColorFactor": [
          0.12256760431052603,
          0.09113510593175544,
          0.09113510593175544,
          1.0
        ],
        "metallicFactor": 0.44952517950530896,
        "roughnessFactor": 0.24571198693176977
      }
    },
    {
      "doubleSided": true,
      "name": "Material.002",
      "pbrMetallicRoughness": {
        "baseColorFactor": [
          0.16460807970228097,
          0.1324515671362109,
          0.1324515671362109,
          1.0
        ],
        "metallicFactor": 0.4007631261352415,
        "roughnessFactor": 0.12380685350660126
      }
    },
    {
      "doubleSided": true,
      "name": "Material.004",
      "pbrMetallicRoughness": {
        "baseColorFactor": [
          0.020742511621608114,
          0.016337094209422053,
          0.016337094209422053,
          1.0
        ],
        "metallicFactor": 0.0,
        "roughnessFactor": 0.03847326010898322
      }
    },
    {
      "doubleSided": true,
      "emissiveFactor": [
        0.42197790782417816,
        0.375837726725294,
        0.2008054385274337
      ],
      "extensions": {
        "KHR_materials_emissive_strength": {
          "emissiveStrength": 8.94478916507174
        }
      },
      "name": "Material.005",
      "pbrMetallicRoughness": {
        "baseColorFactor": [
          0.8,
          0.8,
          0.8,
          1.0
        ],
        "metallicFactor": 0.0,
        "roughnessFactor": 0.8040408205773457
      }
    }
  ],
  "meshes": [
    {
      "name": "Cube_Material.001_0",
      "primitives": [
        {
          "attributes": {
            "NORMAL": 1,
            "POSITION": 0,
            "TEXCOORD_0": 2
          },
          "indices": 3,
          "material": 0,
          "mode": 4
        }
      ]
    },
    {
      "name": "Cylinder_Material.003_0",
      "primitives": [
        {
          "attributes": {
            "NORMAL": 5,
            "POSITION": 4,
            "TEXCOORD_0": 6
          },
          "indices": 7,
          "material": 1,
          "mode": 4
        }
      ]
    },
    {
      "name": "Cylinder.001_Material.002_0",
      "primitives": [
        {
          "attributes": {
            "NORMAL": 9,
            "POSITION": 8,
            "TEXCOORD_0": 10
          },
          "indices": 11,
          "material": 2,
          "mode": 4
        }
      ]
    },
    {
      "name": "Cylinder.002_Material.004_0",
      "primitives": [
        {
          "attributes": {
            "NORMAL": 13,
            "POSITION": 12,
            "TEXCOORD_0": 14
          },
          "indices": 15,
          "material": 3,
          "mode": 4
        }
      ]
    },
    {
      "name": "Cylinder.002_Material.005_0",
      "primitives": [
        {
          "attributes": {
            "NORMAL": 17,
            "POSITION": 16,
            "TEXCOORD_0": 18
          },
          "indices": 19,
          "material": 4,
          "mode": 4
        }
      ]
    },
    {
      "name": "Cylinder.003_Material.004_0",
      "primitives": [
        {
          "attributes": {
            "NORMAL": 21,
            "POSITION": 20,
            "TEXCOORD_0": 22
          },
          "indices": 23,
          "material": 3,
          "mode": 4
        }
      ]
    },
    {
      "name": "Cylinder.003_Material.005_0",
      "primitives": [
        {
          "attributes": {
            "NORMAL": 25,
            "POSITION": 24,
            "TEXCOORD_0": 26
          },
          "indices": 27,
          "material": 4,
          "mode": 4
        }
      ]
    },
    {
      "name": "Cylinder.004_Material.004_0",
      "primitives": [
        {
          "attributes": {
            "NORMAL": 29,
            "POSITION": 28,
            "TEXCOORD_0": 30
          },
          "indices": 31,
          "material": 3,
          "mode": 4
        }
      ]
    },
    {
      "name": "Cylinder.004_Material.005_0",
      "primitives": [
        {
          "attributes": {
            "NORMAL": 33,
            "POSITION": 32,
            "TEXCOORD_0": 34
          },
          "indices": 35,
          "material": 4,
          "mode": 4
        }
      ]
    }
  ],
  "nodes": [
    {
      "children": [
        1
      ],
      "matrix": [
        1.0,
        0.0,
        0.0,
        0.0,
        0.0,
        2.220446049250313e-16,
        -1.0,
        0.0,
        0.0,
        1.0,
        2.220446049250313e-16,
        0.0,
        0.0,
        0.0,
        0.0,
        1.0
      ],
      "name": "Sketchfab_model"
    },
    {
      "children": [
        2
      ],
      "matrix": [
        0.009999999776482582,
        0.0,
        0.0,
        0.0,
        0.0,
        0.0,
        0.009999999776482582,
        0.0,
        0.0,
        -0.009999999776482582,
        0.0,
        0.0,
        0.0,
        0.0,
        0.0,
        1.0
      ],
      "name": "fd67a458609c454d980733c37d30f397.fbx"
    },
    {
      "children": [
        3,
        5,
        7,
        9,
        12,
        15
      ],
      "name": "RootNode"
    },
    {
      "children": [
        4
      ],
      "matrix": [
        50.0,
        0.0,
        0.0,
        0.0,
        0.0,
        -1.6292067939183141e-06,
        -9.999999999999869,
        0.0,
        0.0,
        4.999999999999934,
        -8.146033969591571e-07,
        0.0,
        0.0,
        100.08492279052734,
        0.0,
        1.0
      ],
      "name": "Cube"
    },
    {
      "mesh": 0,
      "name": "Cube_Material.001_0"
    },
    {
      "children": [
        6
      ],
      "matrix": [
        0.5146493911743164,
        0.0,
        0.0,
        0.0,
        -0.0,
        -8.384702845871203e-08,
        -0.5146493911743096,
        0.0,
        0.0,
        0.5146493911743096,
        -8.384702845871203e-08,
        0.0,
        -40.18288040161133,
        105.56856536865234,
        0.0,
        1.0
      ],
      "name": "Cylinder"
    },
    {
      "mesh": 1,
      "name": "Cylinder_Material.003_0"
    },
    {
      "children": [
        8
      ],
      "matrix": [
        0.5146493911743164,
        0.0,
        0.0,
        0.0,
        0.0,
        -8.384702845871203e-08,
        -0.5146493911743096,
        0.0,
        0.0,
        0.5146493911743096,
        -8.384702845871203e-08,
        0.0,
        39.95466613769531,
        105.56856536865234,
        0.0,
        1.0
      ],
      "name": "Cylinder.001"
    },
    {
      "mesh": 2,
      "name": "Cylinder.001_Material.002_0"
    },
    {
      "children": [
        10,
        11
      ],
      "matrix": [
        4.616598606109619,
        0.0,
        0.0,
        0.0,
        0.0,
        -7.521393813867611e-07,
        -4.616598606109558,
        0.0,
        0.0,
        4.616598606109558,
        -7.521393813867611e-07,
        0.0,
        0.0,
        90.5665054321289,
        0.0,
        1.0
      ],
      "name": "Cylinder.002"
    },
    {
      "mesh": 3,
      "name": "Cylinder.002_Material.004_0"
    },
    {
      "mesh": 4,
      "name": "Cylinder.002_Material.005_0"
    },
    {
      "children": [
        13,
        14
      ],
      "matrix": [
        4.616598606109619,
        0.0,
        0.0,
        0.0,
        0.0,
        -7.521393813867611e-07,
        -4.616598606109558,
        0.0,
        0.0,
        4.616598606109558,
        -7.521393813867611e-07,
        0.0,
        40.05134582519531,
        90.5665054321289,
        0.0,
        1.0
      ],
      "name": "Cylinder.003"
    },
    {
      "mesh": 5,
      "name": "Cylinder.003_Material.004_0"
    },
    {
      "mesh": 6,
      "name": "Cylinder.003_Material.005_0"
    },
    {
      "children": [
        16,
        17
      ],
      "matrix": [
        4.616598606109619,
        0.0,
        0.0,
        0.0,
        -0.0,
        -7.521393813867611e-07,
        -4.616598606109558,
        0.0,
        0.0,
        4.616598606109558,
        -7.521393813867611e-07,
        0.0,
        -40.24863815307617,
        90.5665054321289,
        0.0,
        1.0
      ],
      "name": "Cylinder.004"
    },
    {
      "mesh": 7,
      "name": "Cylinder.004_Material.004_0"
    },
    {
      "mesh": 8,
      "name": "Cylinder.004_Material.005_0"
    }
  ],
  "scene": 0,
  "scenes": [
    {
      "name": "Sketchfab_Scene",
      "nodes": [
        0
      ]
    }
  ]
}
