{
  "accessors": [
    {
      "bufferView": 2,
      "componentType": 5126,
      "count": 65532,
      "max": [
        0.20221099257469177,
        0.18694500625133514,
        0.05602100118994713
      ],
      "min": [
        -0.13035200536251068,
        -0.14612700045108795,
        -0.002532999962568283
      ],
      "type": "VEC3"
    },
    {
      "bufferView": 2,
      "byteOffset": 786384,
      "componentType": 5126,
      "count": 65532,
      "max": [
        0.9999134540557861,
        0.9999465942382813,
        0.9999998807907104
      ],
      "min": [
        -0.9999949932098389,
        -0.9999868869781494,
        -1.0
      ],
      "type": "VEC3"
    },
    {
      "bufferView": 3,
      "componentType": 5126,
      "count": 65532,
      "max": [
        0.9999942779541016,
        0.9999892711639404,
        0.9999833106994629,
        1.0
      ],
      "min": [
        -0.9999983906745911,
        -0.9999998211860657,
        -0.9999935626983643,
        -1.0
      ],
      "type": "VEC4"
    },
    {
      "bufferView": 1,
      "componentType": 5126,
      "count": 65532,
      "max": [
        0.9764900207519531,
        0.9980400204658508
      ],
      "min": [
        0.0019499999471008778,
        0.0019499999471008778
      ],
      "type": "VEC2"
    },
    {
      "bufferView": 0,
      "componentType": 5125,
      "count": 315780,
      "type": "SCALAR"
    },
    {
      "bufferView": 2,
      "byteOffset": 1572768,
      "componentType": 5126,
      "count": 25010,
      "max": [
        0.19928200542926788,
        0.1873999983072281,
        0.056428998708724976
      ],
      "min": [
        -0.1259319931268692,
        -0.13676999509334564,
        -0.0021269998978823423
      ],
      "type": "VEC3"
    },
    {
      "bufferView": 2,
      "byteOffset": 1872888,
      "componentType": 5126,
      "count": 25010,
      "max": [
        0.9994364976882935,
        0.9999727010726929,
        0.9999918937683105
      ],
      "min": [
        -0.9998725056648254,
        -0.9996694922447205,
        -0.9999877214431763
      ],
      "type": "VEC3"
    },
    {
      "bufferView": 3,
      "byteOffset": 1048512,
      "componentType": 5126,
      "count": 25010,
      "max": [
        0.9999744892120361,
        0.999988317489624,
        0.9999790787696838,
        1.0
      ],
      "min": [
        -0.9999508261680603,
        -0.9999899864196777,
        -0.9999973773956299,
        1.0
      ],
      "type": "VEC4"
    },
    {
      "bufferView": 1,
      "byteOffset": 524256,
      "componentType": 5126,
      "count": 25010,
      "max": [
        0.9764000177383423,
        0.9756199717521667
      ],
      "min": [
        0.0019499999471008778,
        0.0019499999471008778
      ],
      "type": "VEC2"
    },
    {
      "bufferView": 0,
      "byteOffset": 1263120,
      "componentType": 5125,
      "count": 115512,
      "type": "SCALAR"
    },
    {
      "bufferView": 2,
      "byteOffset": 2173008,
      "componentType": 5126,
      "count": 1248,
      "max": [
        0.2589609920978546,
        0.2589609920978546,
        -0.0033650000113993883
      ],
      "min": [
        -0.24969199299812317,
        -0.24969199299812317,
        -0.0033650000113993883
      ],
      "type": "VEC3"
    },
    {
      "bufferView": 2,
      "byteOffset": 2187984,
      "componentType": 5126,
      "count": 1248,
      "max": [
        0.0,
        -0.0,
        -1.0
      ],
      "min": [
        0.0,
        -0.0,
        -1.0
      ],
      "type": "VEC3"
    },
    {
      "bufferView": 1,
      "byteOffset": 724336,
      "componentType": 5126,
      "count": 1248,
      "max": [
        0.9998990297317505,
        0.9998999834060669
      ],
      "min": [
        9.999999747378752e-05,
        9.999999747378752e-05
      ],
      "type": "VEC2"
    },
    {
      "bufferView": 0,
      "byteOffset": 1725168,
      "componentType": 5125,
      "count": 6912,
      "type": "SCALAR"
    }
  ],
  "asset": {
    "extras": {
      "author": "Virtual Museums of Małopolska (https://sketchfab.com/WirtualneMuzeaMalopolski)",
      "license": "CC0-1.0 (http://creativecommons.org/publicdomain/zero/1.0/)",
      "source": "https://sketchfab.com/3d-models/olympic-gold-medal-won-by-robert-korzeniowski-2f793eb64fb4404eacf17b6f826e2dd2",
      "title": "Olympic gold medal won by Robert Korzeniowski"
    },
    "generator": "Sketchfab-12.68.0",
    "version": "2.0"
  },
  "bufferViews": [
    {
      "buffer": 0,
      "byteLength": 1752816,
      "name": "floatBufferViews",
      "target": 34963
    },
    {
      "buffer": 0,
      "byteLength": 734320,
      "byteOffset": 1752816,
      "byteStride": 8,
      "name": "floatBufferViews",
      "target": 34962
    },
    {
      "buffer": 0,
      "byteLength": 2202960,
      "byteOffset": 2487136,
      "byteStride": 12,
      "name": "floatBufferViews",
      "target": 34962
    },
    {
      "buffer": 0,
      "byteLength": 1448672,
      "byteOffset": 4690096,
      "byteStride": 16,
      "name": "floatBufferViews",
      "target": 34962
    }
  ],
  "buffers": [
    {
      "byteLength": 6138768,
      "uri": "scene.bin"
    }
  ],
  "extensionsUsed": [
    "KHR_materials_clearcoat"
  ],
  "images": [
    {
      "uri": "textures/Medal_05_FIN_baseColor.png"
    },
    {
      "uri": "textures/Medal_05_FIN_metallicRoughness.png"
    },
    {
      "uri": "textures/Medal_05_FIN_normal.png"
    }
  ],
  "materials": [
    {
      "doubleSided": true,
      "name": "Medal_05_FIN",
      "normalTexture": {
        "index": 2
      },
      "occlusionTexture": {
        "index": 1
      },
      "pbrMetallicRoughness": {
        "baseColorTexture": {
          "index": 0
        },
        "metallicRoughnessTexture": {
          "index": 1
        }
      }
    },
    {
      "doubleSided": true,
      "extensions": {
        "KHR_materials_clearcoat": {
          "clearcoatFactor": 0.9968350582,
          "clearcoatRoughnessFactor": 0.0239422831
        }
      },
      "name": "Medal_05_FIN.001",
      "pbrMetallicRoughness": {
        "baseColorFactor": [
          0.3988753272,
          0.4983519487,
          0.5983097096,
          1.0
        ],
        "roughnessFactor": 0.14555388001799852
      }
    }
  ],
  "meshes": [
    {
      "name": "Object_0",
      "primitives": [
        {
          "attributes": {
            "NORMAL": 1,
            "POSITION": 0,
            "TANGENT": 2,
            "TEXCOORD_0": 3
          },
          "indices": 4,
          "material": 0,
          "mode": 4
        }
      ]
    },
    {
      "name": "Object_1",
      "primitives": [
        {
          "attributes": {
            "NORMAL": 6,
            "POSITION": 5,
            "TANGENT": 7,
            "TEXCOORD_0": 8
          },
          "indices": 9,
          "material": 0,
          "mode": 4
        }
      ]
    },
    {
      "name": "Object_2",
      "primitives": [
        {
          "attributes": {
            "NORMAL": 11,
            "POSITION": 10,
            "TEXCOORD_0": 12
          },
          "indices": 13,
          "material": 1,
          "mode": 4
        }
      ]
    }
  ],
  "nodes": [
    {
      "children": [
        1
      ],
      "matrix": [
        1.0,
        0.0,
        0.0,
        0.0,
        0.0,
        2.220446049250313e-16,
        -1.0,
        0.0,
        0.0,
        1.0,
        2.220446049250313e-16,
        0.0,
        0.0,
        0.0,
        0.0,
        1.0
      ],
      "name": "Sketchfab_model"
    },
    {
      "children": [
        2,
        3,
        4
      ],
      "name": "Medal_05_FIN_cover.obj.cleaner.materialmerger.gles"
    },
    {
      "mesh": 0,
      "name": "Object_2"
    },
    {
      "mesh": 1,
      "name": "Object_3"
    },
    {
      "mesh": 2,
      "name": "Object_4"
    }
  ],
  "samplers": [
    {
      "magFilter": 9729,
      "minFilter": 9987,
      "wrapS": 10497,
      "wrapT": 10497
    }
  ],
  "scene": 0,
  "scenes": [
    {
      "name": "Sketchfab_Scene",
      "nodes": [
        0
      ]
    }
  ],
  "textures": [
    {
      "sampler": 0,
      "source": 0
    },
    {
      "sampler": 0,
      "source": 1
    },
    {
      "sampler": 0,
      "source": 2
    }
  ]
}
